<?xml version="1.0" encoding="utf-8"?>
<svg width="28px" height="28px" viewbox="0 0 28 28" version="1.1" xmlns:xlink="http://www.w3.org/1999/xlink" xmlns="http://www.w3.org/2000/svg">
  <g id="google-icon">
    <path d="M14 2.95262C14 1.76516 13.9027 0.898619 13.6921 0L0 0L0 5.35963L8.03697 5.35963C7.875 6.69158 7 8.69746 5.05552 10.0453L5.02826 10.2248L9.35746 13.5461L9.65739 13.5758C12.412 11.0563 14 7.34947 14 2.95262" transform="translate(14 11.030303)" id="Path" fill="#4285F4" fill-rule="evenodd" stroke="none" />
    <path d="M12.5625 11.0303C16.3593 11.0303 19.5468 9.80805 21.875 7.69983L17.4375 4.33871C16.25 5.14842 14.6562 5.71368 12.5625 5.71368C8.8438 5.71368 5.68758 3.3152 4.56247 0L4.39756 0.0136918L0.056767 3.29835L0 3.45264C2.31247 7.94418 7.06248 11.0303 12.5625 11.0303" transform="translate(1.75 16.969696)" id="Path" fill="#34A853" fill-rule="evenodd" stroke="none" />
    <path d="M6.125 9.18666C5.82507 8.30934 5.65149 7.36927 5.65149 6.39798C5.65149 5.42659 5.82507 4.48662 6.10922 3.6093L6.10128 3.42245L1.66073 0L1.51544 0.068583C0.552524 1.97994 0 4.12632 0 6.39798C0 8.66965 0.552524 10.8159 1.51544 12.7273L6.125 9.18666" transform="translate(0 7.6363635)" id="Path" fill="#FBBC05" fill-rule="evenodd" stroke="none" />
    <path d="M13.0093 5.31652C15.7438 5.31652 17.5883 6.43176 18.6401 7.36375L22.75 3.57492C20.2259 1.3597 16.9411 0 13.0093 0C7.31365 0 2.39471 3.08602 0 7.57755L4.70855 11.0303C5.88985 7.7151 9.15832 5.31652 13.0093 5.31652" transform="translate(0.875 0)" id="Path" fill="#EB4335" fill-rule="evenodd" stroke="none" />
  </g>
</svg>