<?xml version="1.0" encoding="utf-8"?>
<svg width="20px" height="20px" viewbox="0 0 19 20" version="1.1" xmlns:xlink="http://www.w3.org/1999/xlink" xmlns="http://www.w3.org/2000/svg">
  <defs>
    <linearGradient x1="0.5" y1="0" x2="0.5" y2="1" id="gradient_1">
      <stop offset="0" stop-color="#8643FF" />
      <stop offset="1" stop-color="#4136F1" />
    </linearGradient>
  </defs>
  <path d="M6.64373 18.7821L6.64373 15.7152C6.64372 14.9381 7.27567 14.3067 8.05844 14.3018L10.9326 14.3018C11.7189 14.3018 12.3563 14.9346 12.3563 15.7152L12.3563 15.7152L12.3563 18.7732C12.3562 19.4473 12.904 19.9951 13.5829 20L15.5438 20C16.4596 20.0023 17.3388 19.6428 17.9872 19.0007C18.6356 18.3586 19 17.4868 19 16.5775L19 7.86585C19 7.13139 18.6721 6.43471 18.1046 5.9635L11.443 0.674268C10.2785 -0.250878 8.61537 -0.220992 7.48539 0.745384C7.48539 0.745384 0.967012 5.9635 0.967012 5.9635C0.372741 6.42082 0.0175523 7.11956 0 7.86585L0 16.5686C2.3376e-16 18.4637 1.54738 20 3.45617 20L5.37229 20C5.69917 20.0023 6.01349 19.8751 6.24547 19.6464C6.47746 19.4178 6.60793 19.1067 6.60792 18.7821L6.64373 18.7821Z" id="Home" fill="url(#gradient_1)" fill-rule="evenodd" stroke="none" />
</svg>