<?xml version="1.0" encoding="utf-8"?>
<svg width="16px" height="16px" viewbox="0 0 16 16" version="1.1" xmlns:xlink="http://www.w3.org/1999/xlink" xmlns="http://www.w3.org/2000/svg">
  <g id="Heart">
    <path d="M7.80334 15.8631C5.97691 14.6756 4.27907 13.2754 2.74088 11.6881C1.65497 10.5547 0.825656 9.17092 0.316298 7.64233C-0.593808 4.66125 0.465612 1.2543 3.42346 0.24286C4.98466 -0.273237 6.68261 0.0435827 7.98821 1.0946L7.98821 1.0946C9.29428 0.0447581 10.9917 -0.271959 12.553 0.24286C15.5108 1.2543 16.5773 4.66125 15.6672 7.64233C15.162 9.16948 14.3376 10.5532 13.2569 11.6881C11.7173 13.2737 10.0196 14.6737 8.1944 15.8631L7.99532 16L7.80334 15.8631Z" transform="translate(0.017447753 0)" id="Path_34179" fill="#FF009B" fill-opacity="0.4" fill-rule="evenodd" stroke="none" />
    <path d="M8.00872 15.9997L7.82079 15.8628C5.9921 14.6754 4.2919 13.2752 2.75121 11.6877C1.66016 10.556 0.825907 9.17203 0.312415 7.64199C-0.59058 4.66091 0.46884 1.25396 3.42668 0.242527C4.98789 -0.27357 6.70823 0.043492 8.00872 1.10331L8.00872 15.9997Z" transform="translate(7.1054275E-16 0.00033333298)" id="Path_34178" fill="#FF009B" fill-rule="evenodd" stroke="none" />
    <path d="M1.78435 3.36777L1.78435 3.36777C1.62365 3.35688 1.474 3.27233 1.37045 3.13395C1.2669 2.99557 1.21855 2.8155 1.23673 2.63592L1.23673 2.63592C1.25412 2.04447 0.934412 1.50611 0.44138 1.29665C0.128743 1.20681 -0.0605818 0.850414 0.0176263 0.498937C0.0918358 0.15311 0.399476 -0.0619196 0.708671 0.015919C0.747715 0.0227353 0.785293 0.0376242 0.819499 0.0598297C1.80806 0.460277 2.4481 1.53803 2.39717 2.71643C2.39556 2.89503 2.3294 3.06525 2.21386 3.18805C2.09832 3.31085 1.94331 3.37572 1.78435 3.36777Z" transform="translate(11.2 2.5263157)" id="Path_34180" fill="#FF009B" fill-rule="evenodd" stroke="none" />
  </g>
</svg>