<?xml version="1.0" encoding="utf-8"?>
<svg width="32px" height="20px" viewbox="0 0 32 20" version="1.1" xmlns:xlink="http://www.w3.org/1999/xlink" xmlns="http://www.w3.org/2000/svg">
  <g id="mastercard-2">
    <path d="M8.64944 15.7034L0 15.7034L0 0L8.6496 0L8.64944 15.7034Z" transform="translate(11.669525 2.1349778)" id="Path" fill="#FF5F00" fill-rule="evenodd" stroke="none" />
    <path d="M12.2179 9.98699C12.2179 6.80157 13.6943 3.96398 15.9933 2.13531C14.2531 0.749066 12.1006 -0.00329717 9.8845 1.08622e-05C4.42531 1.08622e-05 0 4.47127 0 9.98699C0 15.5027 4.42531 19.974 9.8845 19.974C12.1007 19.9773 14.2532 19.2249 15.9934 17.8387C13.6946 16.0103 12.2179 13.1726 12.2179 9.98699" transform="translate(0 -1.0862246E-05)" id="Path" fill="#EB001B" fill-rule="evenodd" stroke="none" />
    <path d="M15.9942 9.98699C15.9942 15.5027 11.5689 19.974 6.10975 19.974C3.8933 19.9773 1.74061 19.2249 0 17.8387C2.29965 16.01 3.77603 13.1726 3.77603 9.98699C3.77603 6.8014 2.29965 3.96398 1.81808e-15 2.13531C1.74056 0.749107 3.8932 -0.00323919 6.10959 1.04834e-05C11.5688 1.04834e-05 15.9941 4.47127 15.9941 9.98699" transform="translate(15.993763 -1.0483366E-05)" id="Path" fill="#F79E1B" fill-rule="evenodd" stroke="none" />
  </g>
</svg>