<?xml version="1.0" encoding="utf-8"?>
<svg width="77px" height="80px" viewbox="0 0 77 80" version="1.1" xmlns:xlink="http://www.w3.org/1999/xlink" xmlns="http://www.w3.org/2000/svg">
  <defs>
    <linearGradient x1="0.5" y1="0" x2="0.5" y2="1" id="gradient_1">
      <stop offset="0" stop-color="#8643FF" />
      <stop offset="1" stop-color="#4136F1" />
    </linearGradient>
  </defs>
  <g id="Notification" transform="translate(30 30)">
    <path d="M0.00180549 11.9124L0.00180549 11.7079C0.0367213 11.0531 0.243377 10.4187 0.601265 9.86772C1.19803 9.19909 1.60828 8.38691 1.79124 7.51192C1.83597 6.84518 1.79124 6.16066 1.83597 5.48503C2.15807 2.24024 5.3701 0 8.44792 0L8.5374 0C11.6689 0 14.8004 2.24024 15.1404 5.48503C15.203 6.15177 15.1404 6.84518 15.1941 7.51192C15.3726 8.38844 15.7834 9.20171 16.3841 9.86772C16.7575 10.4124 16.9712 11.0495 17.0014 11.7079L17.0014 11.9124C17.0069 12.7993 16.6891 13.6582 16.1067 14.3304C15.3595 15.1274 14.3439 15.624 13.2525 15.7261C10.0657 16.135 6.83912 16.135 3.65225 15.7261C2.5736 15.6157 1.57205 15.1197 0.833891 14.3304C0.269752 13.6518 -0.0260755 12.7921 0.00180549 11.9124Z" transform="matrix(1 0 0 1 -1.7763568E-15 -7.1054274E-15)" id="Path_425-2" fill="url(#gradient_1)" fill-rule="evenodd" stroke="none" />
    <path d="M4.0978 0.0197552C3.46255 -0.024694 2.94362 0.0197552 2.42468 0.0197552C1.91003 0.0108701 1.39622 0.0646087 0.894716 0.179772C0.465252 0.277561 0 0.508696 0 0.997638C0.0450632 1.47018 0.301237 1.89766 0.697878 2.16221C1.46193 2.74571 2.42477 3.01039 3.38203 2.90006C4.31251 2.83145 5.16299 2.35184 5.69934 1.59326C5.9958 1.20894 5.92818 0.659568 5.54724 0.357569L5.54724 0.357569L5.54724 0.357569C5.09617 0.13708 4.60049 0.0215544 4.0978 0.0197552Z" transform="translate(5.5669384 17.075409)" id="Path_426" fill="url(#gradient_1)" fill-opacity="0.4" fill-rule="evenodd" stroke="none" />
  </g>
</svg>