<?xml version="1.0" encoding="utf-8"?>
<svg width="80px" height="78px" viewbox="0 0 80 78" version="1.1" xmlns:xlink="http://www.w3.org/1999/xlink" xmlns="http://www.w3.org/2000/svg">
  <defs>
    <linearGradient x1="0.5" y1="0" x2="0.5" y2="1" id="gradient_1">
      <stop offset="0" stop-color="#8643FF" />
      <stop offset="1" stop-color="#4136F1" />
    </linearGradient>
  </defs>
  <g id="Wallet" transform="translate(30 30)">
    <path d="M19.9964 5.37513L15.7618 5.37513C13.7911 5.37859 12.1947 6.93514 12.1911 8.85657C12.1884 10.7823 13.7867 12.3458 15.7618 12.3484L20 12.3484L20 12.6543C20 16.0136 17.9636 18 14.5173 18L5.48356 18C2.03644 18 0 16.0136 0 12.6543L0 5.33786C0 1.97862 2.03644 0 5.48356 0L14.5138 0C17.96 0 19.9964 1.97862 19.9964 5.33786L19.9964 5.37513ZM4.73956 5.36733L10.3902 5.36733C10.8124 5.36559 11.1538 5.03019 11.152 4.61765C11.1502 4.20598 10.8053 3.87318 10.3831 3.87491L4.73956 3.87491C4.32 3.87664 3.97956 4.20858 3.97778 4.61852C3.976 5.03019 4.31733 5.36559 4.73956 5.36733Z" id="Fill-1" fill="url(#gradient_1)" fill-rule="evenodd" stroke="none" />
    <path d="M0.0374068 2.39667C0.246531 3.34785 1.08048 4.01707 2.03259 3.99967L5.28252 3.99967C5.67866 3.99967 6 3.67158 6 3.26605L6 0.734491C5.99915 0.329825 5.67866 0.00087025 5.28252 0L1.95608 0C0.873054 0.003481 -0.00169772 0.902449 2.47422e-06 2.01028C2.47422e-06 2.13994 0.012754 2.26961 0.0374068 2.39667" transform="translate(14 6.9)" id="Fill-4" fill="url(#gradient_1)" fill-rule="evenodd" stroke="none" />
    <path d="M1 2C1.55228 2 2 1.55228 2 1C2 0.447715 1.55228 0 1 0C0.447715 0 0 0.447715 0 1C0 1.55228 0.447715 2 1 2Z" transform="translate(15 7.9)" id="Oval" fill="url(#gradient_1)" fill-rule="evenodd" stroke="none" />
  </g>
</svg>