<?xml version="1.0" encoding="utf-8"?>
<svg width="24px" height="28px" viewbox="0 0 24 28" version="1.1" xmlns:xlink="http://www.w3.org/1999/xlink" xmlns="http://www.w3.org/2000/svg">
  <g id="paypal-icon-(1)">
    <path d="M20.4237 2.11035C19.113 0.633263 16.7438 0 13.7129 0L4.91637 0C4.29686 2.26811e-05 3.76932 0.445409 3.67223 1.05039L0.00950483 24.0193C-0.0632982 24.4722 0.291405 24.8823 0.755689 24.8823L6.18638 24.8823L7.55026 16.3287L7.50793 16.5965C7.6051 15.9919 8.12807 15.546 8.74737 15.546L11.328 15.546C16.3977 15.546 20.3673 13.5099 21.5269 7.62009C21.5614 7.44589 21.5912 7.27634 21.6169 7.1107C21.4706 7.03407 21.4706 7.03407 21.6169 7.1107C21.9622 4.93376 21.6146 3.45193 20.4237 2.11035" transform="translate(0.0032874274 0.008475421)" id="Path" fill="#27346A" fill-rule="evenodd" stroke="none" />
    <path d="M9.62825 6.32649C9.77672 6.2566 9.9391 6.22037 10.1035 6.22047L16.9999 6.22047C17.8165 6.22047 18.5782 6.27302 19.2743 6.38378C19.469 6.41449 19.6628 6.45115 19.8553 6.49372C20.1281 6.55324 20.3977 6.62609 20.6633 6.712C21.0055 6.825 21.3241 6.9566 21.617 7.1107C21.9622 4.93292 21.6146 3.45193 20.4237 2.11035C19.1123 0.633263 16.7438 0 13.7129 0L4.91562 0C4.29623 0 3.7693 0.445861 3.67223 1.05039L0.00950534 24.0184C-0.0632977 24.4721 0.291405 24.8817 0.754937 24.8817L6.18638 24.8817L9.01601 7.13935C9.07249 6.78534 9.3014 6.48141 9.62825 6.32649Z" transform="translate(0.003286914 0.008475421)" id="Path" fill="#27346A" fill-rule="evenodd" stroke="none" />
    <path d="M15.7239 0.509382C14.5643 6.39839 10.5948 8.43526 5.52501 8.43526L2.9436 8.43526C2.32431 8.43526 1.80124 8.88122 1.70501 9.48584L0.00825089 20.1213C-0.055146 20.5177 0.254878 20.8769 0.660468 20.8769L5.2384 20.8769C5.78015 20.8767 6.24136 20.4871 6.32603 19.958L6.37061 19.7273L7.23343 14.3205L7.28902 14.0216C7.37368 13.4926 7.83484 13.1029 8.37655 13.1028L9.06169 13.1028C13.4964 13.1028 16.9688 11.3214 17.9835 6.16932C18.4071 4.01628 18.1879 2.2187 17.0675 0.95608C16.7276 0.573648 16.3056 0.257807 15.8139 0C15.7873 0.166477 15.7584 0.335186 15.7239 0.509382L15.7239 0.509382Z" transform="translate(5.806301 7.119179)" id="Path" fill="#2790C3" fill-rule="evenodd" stroke="none" />
    <path d="M12.8947 0.411917C12.7139 0.359713 12.5314 0.313496 12.3474 0.273341C12.1549 0.231474 11.9611 0.195064 11.7664 0.164155C11.0696 0.052643 10.3085 2.76857e-06 9.4911 2.76857e-06L2.59561 2.76857e-06C2.43104 -0.000366309 2.26854 0.0361705 2.12032 0.106864C1.79307 0.261325 1.56395 0.565468 1.50798 0.919718L0.0423273 10.1083L0 10.3762C0.0964122 9.77155 0.61939 9.32559 1.23878 9.32559L3.82018 9.32559C8.88987 9.32559 12.8594 7.28955 14.019 1.39971C14.0535 1.22551 14.0825 1.05671 14.1091 0.890329C13.8155 0.737058 13.4976 0.604621 13.1553 0.492365C13.069 0.464055 12.9821 0.437234 12.8948 0.411917" transform="translate(7.5119715 6.22885)" id="Path" fill="#1F264F" fill-rule="evenodd" stroke="none" />
  </g>
</svg>