<?xml version="1.0" encoding="utf-8"?>
<svg width="20px" height="20px" viewbox="0 0 18 20" version="1.1" xmlns:xlink="http://www.w3.org/1999/xlink" xmlns="http://www.w3.org/2000/svg">
  <defs>
    <linearGradient x1="0.5" y1="0" x2="0.5" y2="1" id="gradient_1">
      <stop offset="0" stop-color="#8643FF" />
      <stop offset="1" stop-color="#4136F1" />
    </linearGradient>
  </defs>
  <g id="Profile" opacity="0.2">
    <path d="M5.62508 11.1111C8.73173 11.1111 11.2502 8.6238 11.2502 5.55556C11.2502 2.48731 8.73173 0 5.62508 0C2.51843 0 0 2.48731 0 5.55556C0 8.6238 2.51843 11.1111 5.62508 11.1111Z" transform="translate(3.3750482 1.7763568E-15)" id="Ellipse_744" fill="url(#gradient_1)" fill-rule="evenodd" stroke="none" />
    <path d="M17.9902 3.34247L17.9902 3.34247C17.9953 3.26339 17.9953 3.1841 17.9902 3.10502C17.968 2.81279 17.8851 2.52742 17.7461 2.26484C17.1993 1.19635 15.6663 0.712329 14.3871 0.438356C13.4745 0.248368 12.5472 0.126221 11.6139 0.0730594L10.6375 0L10.1981 0L9.65125 0L8.34279 0L7.79597 0L7.35656 0L6.3801 0.0730594C5.44686 0.126221 4.51958 0.248368 3.60695 0.438356C2.32779 0.675799 0.79474 1.16895 0.247921 2.26484C0.108983 2.52742 0.0260671 2.81279 0.00380577 3.10502C-0.00126859 3.1841 -0.00126859 3.26339 0.00380577 3.34247L0.00380577 3.34247C-0.000879295 3.42155 -0.000879295 3.50082 0.00380577 3.57991C0.0303656 3.86964 0.116575 4.15184 0.257686 4.41096C0.804505 5.47945 2.33755 5.96347 3.61671 6.23744C4.53105 6.41854 5.45762 6.54059 6.38987 6.60274L7.36633 6.66667L7.60068 6.66667L7.80574 6.66667L10.2078 6.66667L10.4129 6.66667L10.6472 6.66667L11.6237 6.60274C12.5559 6.54059 13.4825 6.41854 14.3969 6.23744C15.676 5.99087 17.2091 5.50685 17.7559 4.41096C17.8904 4.14362 17.9731 3.85604 18 3.56164C18.0012 3.48847 17.998 3.41529 17.9902 3.34247Z" transform="translate(4.2632564E-14 13.333333)" id="Path_34198" fill="url(#gradient_1)" fill-rule="evenodd" stroke="none" />
  </g>
</svg>