<?xml version="1.0" encoding="utf-8"?>
<svg width="20px" height="20px" viewbox="0 0 20 20" version="1.1" xmlns:xlink="http://www.w3.org/1999/xlink" xmlns="http://www.w3.org/2000/svg">
  <defs>
    <linearGradient x1="0.5" y1="0" x2="0.5" y2="1" id="gradient_1">
      <stop offset="0" stop-color="#8643FF" />
      <stop offset="1" stop-color="#4136F1" />
    </linearGradient>
  </defs>
  <g id="Category" opacity="0.2">
    <path d="M2.53852 0L5.92449 0C7.32676 0 8.46301 1.14585 8.46301 2.55996L8.46301 5.97452C8.46301 7.38864 7.32676 8.53449 5.92449 8.53449L2.53852 8.53449C1.13626 8.53449 0 7.38864 0 5.97452L0 2.55996C0 1.14585 1.13626 0 2.53852 0" transform="translate(11.536865 0)" id="Fill-1" fill="url(#gradient_1)" fill-rule="evenodd" stroke="none" />
    <path d="M0 2.55996C0 1.14585 1.13626 0 2.53852 0L5.92449 0C7.32676 0 8.46301 1.14585 8.46301 2.55996L8.46301 5.97452C8.46301 7.38864 7.32676 8.53449 5.92449 8.53449L2.53852 8.53449C1.13626 8.53449 0 7.38864 0 5.97452L0 2.55996ZM0 14.0255C0 12.6114 1.13626 11.4655 2.53852 11.4655L5.92449 11.4655C7.32676 11.4655 8.46301 12.6114 8.46301 14.0255L8.46301 17.44C8.46301 18.8532 7.32676 20 5.92449 20L2.53852 20C1.13626 20 0 18.8532 0 17.44L0 14.0255ZM11.537 14.0255C11.537 12.6114 12.6732 11.4655 14.0755 11.4655L17.4615 11.4655C18.8637 11.4655 20 12.6114 20 14.0255L20 17.44C20 18.8532 18.8637 20 17.4615 20L14.0755 20C12.6732 20 11.537 18.8532 11.537 17.44L11.537 14.0255Z" id="Combined-Shape" fill="url(#gradient_1)" fill-rule="evenodd" stroke="none" />
  </g>
</svg>