<?xml version="1.0" encoding="utf-8"?>
<svg width="44px" height="15px" viewbox="0 0 44 15" version="1.1" xmlns:xlink="http://www.w3.org/1999/xlink" xmlns="http://www.w3.org/2000/svg">
  <path d="M18.96 14.2695L15.3912 14.2695L17.6216 0.2505L21.1908 0.2505L18.96 14.2695ZM12.3889 0.2505L8.98663 9.89287L8.58403 7.8165L8.5844 7.81725L7.38357 1.51275C7.38357 1.51275 7.23837 0.2505 5.69067 0.2505L0.066 0.2505L0 0.487875C0 0.487875 1.72003 0.853875 3.73303 2.09025L6.83357 14.2699L10.5519 14.2699L16.2298 0.2505L12.3889 0.2505ZM40.4591 14.2695L43.736 14.2695L40.8789 0.250125L38.0101 0.250125C36.6854 0.250125 36.3627 1.29487 36.3627 1.29487L31.0402 14.2695L34.7604 14.2695L35.5043 12.1871L40.0411 12.1871L40.4591 14.2695ZM36.5321 9.3105L38.4072 4.06425L39.4621 9.3105L36.5321 9.3105ZM31.3192 3.62175L31.8285 0.61125C31.8285 0.61125 30.257 0 28.6187 0C26.8477 0 22.642 0.791625 22.642 4.641C22.642 8.26275 27.5781 8.30775 27.5781 10.2101C27.5781 12.1125 23.1506 11.7716 21.6894 10.572L21.1589 13.7198C21.1589 13.7198 22.7524 14.5114 25.1871 14.5114C27.6225 14.5114 31.2965 13.2218 31.2965 9.71175C31.2965 6.06675 26.316 5.72738 26.316 4.14263C26.3164 2.5575 29.792 2.76113 31.3192 3.62175L31.3192 3.62175Z" id="Shape" fill="#2566AF" stroke="none" />
</svg>